<svg xmlns="http://www.w3.org/2000/svg" version="1.1" xmlns:xlink="http://www.w3.org/1999/xlink" xmlns:svgjs="http://svgjs.dev/svgjs" viewBox="0 0 1422 800"><defs><filter id="uuunion-blur" x="-100%" y="-100%" width="400%" height="400%" color-interpolation-filters="sRGB">
        <feGaussianBlur in="SourceGraphic" stdDeviation="22 8.5" result="blur"></feGaussianBlur>
        <feDropShadow stdDeviation="16" in="blur" dx="13" dy="13" flood-color="hsl(270, 73%, 53%)" flood-opacity="0" x="0%" y="0%" width="100%" height="100%"></feDropShadow>
      </filter><filter id="uuunion-blur2" x="-100%" y="-100%" width="400%" height="400%" color-interpolation-filters="sRGB">
        <feGaussianBlur in="SourceGraphic" stdDeviation="22 8.5" result="blur"></feGaussianBlur>
        <feDropShadow stdDeviation="16" in="blur" dx="-13" dy="-13" flood-color="hsl(270, 73%, 53%)" flood-opacity="0" x="0%" y="0%" width="100%" height="100%"></feDropShadow>
      </filter><linearGradient gradientTransform="rotate(0, 0.5, 0.5)" x1="50%" y1="0%" x2="50%" y2="100%" id="uuunion-grad"><stop stop-color="hsl(162, 100%, 58%)" offset="10%"></stop><stop stop-color="hsl(270, 73%, 53%)" offset="90%"></stop></linearGradient><linearGradient gradientTransform="rotate(0, 0.5, 0.5)" x1="50%" y1="0%" x2="50%" y2="100%" id="uuunion-grad2"><stop stop-color="hsl(162, 100%, 58%)" offset="25%"></stop><stop stop-color="hsl(270, 73%, 53%)" offset="100%"></stop></linearGradient><linearGradient gradientTransform="rotate(357, 0.5, 0.5)" x1="50%" y1="0%" x2="50%" y2="100%" id="uuunion-grad3"><stop stop-color="hsl(162, 100%, 58%)" offset="0%"></stop><stop stop-color="hsl(270, 73%, 53%)" offset="75%"></stop></linearGradient></defs><path d="M-114.33 -83.95Q-101.84 -83.2 -89.35 -82.26 -76.87 -81.2 -64.38 -80.07 -51.89 -78.94 -39.4 -77.86 -26.92 -76.91 -14.43 -76.13 -1.94 -75.57 10.53 -75.26 23.02 -75.21 35.51 -75.43 48 -75.92 60.48 -76.63 72.97 -77.53 85.46 -78.57 97.95 -79.69 110.43 -80.83 122.92 -81.92 135.41 -82.9 147.89 -83.72 160.38 -84.33 172.87 -84.69 185.36 -84.79 197.84 -84.62 210.33 -84.19 222.82 -83.52 235.3 -82.65 247.79 -81.63 260.28 -80.52 272.77 -79.38 285.25 -78.28 297.74 -77.27 310.23 -76.41 322.72 -75.76 335.2 -75.35 347.69 -75.2 360.18 -75.31 372.66 -75.7 385.15 -76.32 397.64 -77.16 410.13 -78.15 422.61 -79.25 435.1 -80.39 447.59 -81.5 460.08 -82.53 472.56 -83.42 485.05 -84.12 497.54 -84.58 510.02 -84.79 522.51 -84.72 535 -84.39 547.49 -83.81 559.97 -83.01 572.46 -82.05 584.95 -80.97 597.44 -79.83 609.92 -78.7 622.41 -77.65 634.9 -76.73 647.38 -75.99 659.87 -75.48 672.36 -75.22 684.85 -75.24 697.33 -75.52 709.82 -76.05 722.31 -76.81 734.8 -77.74 747.28 -78.81 759.77 -79.94 772.26 -81.07 784.75 -82.14 797.23 -83.09 809.72 -83.87 822.21 -84.43 834.69 -84.74 847.18 -84.78 859.67 -84.55 872.16 -84.06 884.64 -83.35 897.13 -82.44 909.62 -81.4 922.11 -80.28 934.59 -79.14 947.08 -78.05 959.57 -77.07 972.05 -76.26 984.54 -75.65 997.03 -75.29 1009.52 -75.2 1022 -75.37 1034.49 -75.81 1046.98 -76.48 1059.47 -77.36 1071.95 -78.38 1084.44 -79.49 1096.93 -80.63 1109.42 -81.73 1121.9 -82.74 1134.39 -83.59 1146.88 -84.24 1159.36 -84.65 1171.85 -84.79 1184.34 -84.67 1196.83 -84.28 1209.31 -83.65 1221.8 -82.82 1234.29 -81.82 1246.78 -80.73 1259.26 -79.59 1271.75 -78.47 1284.24 -77.44 1296.73 -76.55 1309.21 -75.86 1321.7 -75.4 1334.19 -75.2 1346.67 -75.27 1359.16 -75.61 1371.65 -76.19 1384.14 -76.99 1396.62 -77.96 1409.11 -79.04 1421.6 -80.18 1434.09 -81.3 1446.57 -82.36 1459.06 -83.28 1470.43 -77.22 1469.95 -56.35 1485.88 -42.27 1514.51 -28.19 1551.19 -14.11 1589.97 -0.03 1624.58 14.04 1649.4 28.13 1660.41 42.21 1655.82 56.29 1636.37 70.37 1605.23 84.45 1567.43 98.53 1529.11 112.61 1496.47 126.7 1474.82 140.78 1467.65 154.86 1476.14 168.94 1498.9 183.02 1532.25 197.1 1570.77 211.19 1608.23 225.27 1638.55 239.35 1656.82 253.43 1660.07 267.51 1647.78 281.59 1621.94 295.67 1586.73 309.76 1547.88 323.84 1511.67 337.92 1483.97 352 1469.28 366.08 1469.98 380.16 1485.95 394.25 1514.61 408.33 1551.3 422.41 1590.09 436.49 1624.67 450.57 1649.46 464.65 1660.42 478.73 1655.78 492.82 1636.29 506.9 1605.12 520.98 1567.31 535.06 1529 549.14 1496.39 563.22 1474.77 577.31 1467.66 591.39 1476.19 605.47 1498.98 619.55 1532.36 633.63 1570.89 647.71 1608.33 661.79 1638.63 675.88 1656.85 689.96 1660.05 704.04 1647.72 718.12 1621.84 732.2 1586.62 746.28 1547.76 760.37 1511.57 774.45 1483.91 788.53 1469.26 802.61 1470 816.69 1457.67 823.79 1445.33 834.07 1432.99 846.93 1420.65 861.66 1408.31 877.42 1395.97 893.33 1383.63 908.48 1371.29 922.03 1358.95 933.21 1346.61 941.39 1334.27 946.1 1321.93 947.08 1309.59 944.29 1297.25 937.86 1284.91 928.17 1272.57 915.76 1260.23 901.34 1247.89 885.71 1235.55 869.76 1223.21 854.39 1210.87 840.46 1198.53 828.76 1186.19 819.95 1173.85 814.53 1161.51 812.8 1149.17 814.86 1136.83 820.59 1124.49 829.68 1112.16 841.6 1099.82 855.69 1087.48 871.15 1075.14 887.11 1062.8 902.67 1050.46 916.94 1038.12 929.14 1025.78 938.56 1013.44 944.68 1001.1 947.15 988.76 945.83 976.42 940.8 964.08 932.34 951.74 920.93 939.4 907.21 927.06 891.95 914.72 876.02 902.38 860.31 890.04 845.72 877.7 833.05 865.36 823.04 853.02 816.23 840.68 813.03 828.34 813.6 816 817.91 803.67 825.73 791.33 836.61 778.99 849.94 766.65 864.96 754.31 880.83 741.97 896.65 729.63 911.53 717.29 924.63 704.95 935.22 692.61 942.69 680.27 946.63 667.93 946.8 655.59 943.21 643.25 936.06 630.91 925.74 618.57 912.84 606.23 898.09 593.89 882.31 581.55 866.41 569.21 851.27 556.87 837.76 544.53 826.62 532.19 818.5 519.85 813.84 507.52 812.92 495.18 815.78 482.84 822.26 470.5 832 458.16 844.44 445.82 858.89 433.48 874.53 421.14 890.48 408.8 905.84 396.46 919.74 384.12 931.4 371.78 940.15 359.44 945.52 347.1 947.19 334.76 945.07 322.42 939.28 310.08 930.14 297.74 918.18 285.4 904.06 273.06 888.59 260.72 872.63 248.38 857.09 236.05 842.83 223.71 830.68 211.37 821.31 199.03 815.24 186.69 812.83 174.35 814.21 162.01 819.3 149.67 827.81 137.33 839.26 124.99 853.01 112.65 868.29 100.31 884.22 87.97 899.92 75.63 914.49 63.29 927.12 50.95 937.09 38.61 943.84 26.27 946.98 13.93 946.35 1.59 941.98 -10.74 934.11 -23.07 923.19 -35.41 909.83 -47.75 894.79 -60.09 878.91 -72.43 863.1 -84.77 848.24 -97.11 835.17 -109.45 824.63 -109.19 810.43 -114.28 796.23 -123.9 782.04 -136.47 767.84 -149.98 753.64 -162.22 739.45 -171.21 725.25 -175.5 711.05 -174.39 696.86 -168.05 682.66 -157.52 668.46 -144.51 654.27 -131.12 640.07 -119.52 625.87 -111.6 611.68 -108.64 597.48 -111.11 583.28 -118.62 569.09 -129.95 554.89 -143.27 540.69 -156.41 526.5 -167.24 512.3 -174.01 498.1 -175.62 483.91 -171.82 469.71 -163.2 455.51 -151.18 441.32 -137.7 427.12 -124.95 412.92 -114.99 398.73 -109.44 384.53 -109.2 370.33 -114.31 356.14 -123.93 341.94 -136.51 327.74 -150.02 313.55 -162.25 299.35 -171.23 285.15 -175.5 270.96 -174.37 256.76 -168.03 242.56 -157.49 228.37 -144.47 214.17 -131.08 199.97 -119.49 185.78 -111.58 171.58 -108.63 157.38 -111.12 143.19 -118.65 128.99 -129.99 114.79 -143.31 100.6 -156.44 86.4 -167.27 72.2 -174.03 58.01 -175.62 43.81 -171.8 29.61 -163.17 15.42 -151.14 1.22 -137.66 -12.97 -124.92 -27.16 -114.97 -41.36 -109.43 -55.56 -109.21 -69.75 -114.33 -83.95" fill="url(#uuunion-grad)"></path><path d="M-114.34 -83.95Q-109.22 -69.75 -109.44 -55.56 -114.98 -41.36 -124.93 -27.16 -137.67 -12.97 -151.15 1.22 -163.18 15.42 -171.81 29.61 -175.63 43.81 -174.04 58.01 -167.28 72.2 -156.45 86.4 -143.32 100.6 -130 114.79 -118.66 128.99 -111.13 143.18 -108.64 157.38 -111.59 171.58 -119.5 185.77 -131.09 199.97 -144.48 214.17 -157.5 228.36 -168.04 242.56 -174.38 256.76 -175.51 270.95 -171.24 285.15 -162.26 299.35 -150.03 313.54 -136.52 327.74 -123.94 341.94 -114.31 356.13 -109.21 370.33 -100.99 373.93 -92.77 378.18 -84.55 382.98 -76.32 388.2 -68.1 393.73 -59.88 399.41 -51.66 405.11 -43.44 410.67 -35.22 415.97 -27 420.87 -18.77 425.24 -10.55 428.98 5.88 433.77 22.32 436 28.86 433.84 43.75 426.07 53.4 419.22 62.98 411.3 72.51 402.5 82.02 393.06 91.52 383.24 101.03 373.29 110.59 363.49 120.19 354.1 129.87 345.35 139.63 337.46 149.49 330.6 159.47 324.91 169.56 320.46 179.8 317.31 190.17 315.43 200.69 314.76 211.36 315.19 222.18 316.56 233.14 318.69 244.25 321.37 255.5 324.35 266.88 327.41 278.39 330.29 290.01 332.76 301.73 334.62 313.54 335.66 325.43 335.75 337.36 334.77 349.34 332.65 361.35 329.37 373.36 324.95 385.35 319.44 397.31 312.98 409.22 305.68 421.07 297.74 432.83 289.35 444.48 280.71 456.02 272.05 467.43 263.59 478.69 255.53 489.8 248.06 500.74 241.33 511.51 235.48 522.1 230.6 532.5 226.75 542.71 223.93 552.75 222.13 562.59 221.27 572.26 221.24 581.76 221.93 591.1 223.15 600.28 224.75 609.33 226.52 618.26 228.28 627.08 229.83 635.82 230.99 653.11 231.13 670.35 228.93 678.99 226.29 687.7 222.74 696.48 218.32 705.37 213.08 714.4 207.12 723.59 200.58 732.96 193.58 742.53 186.3 752.34 178.9 762.4 171.55 772.73 164.41 783.35 157.64 794.27 151.37 805.51 145.72 817.08 140.77 828.98 136.58 841.22 133.17 853.81 130.55 866.73 128.67 880 127.48 893.59 126.88 907.51 126.76 921.73 127 936.25 127.45 951.03 127.97 966.07 128.42 981.33 128.65 996.79 128.55 1012.42 127.99 1028.19 126.9 1044.06 125.19 1059.99 122.84 1075.96 119.82 1091.91 116.15 1107.82 111.87 1123.63 107.03 1139.32 101.71 1154.84 96.02 1170.16 90.06 1185.22 83.95 1200 77.82 1214.46 71.78 1228.57 65.94 1242.28 60.41 1255.58 55.27 1268.43 50.58 1280.81 46.41 1292.7 42.77 1304.08 39.67 1314.94 37.1 1325.27 35.01 1335.05 33.35 1352.73 31.13 1368.82 29.45 1382.39 27.73 1394.57 25.47 1411.4 17.46 1422 9.66 1382.95 -8.93 1352.48 -27.53 1337.27 -46.13 1340.66 -64.73 1361.91 -83.33 1396.36 -101.93 1436.43 -120.53 1473.33 -139.13 1460.46 -139.1 1447.58 -139.11 1434.71 -139.17 1421.83 -139.26 1408.96 -139.39 1396.08 -139.55 1383.21 -139.74 1370.33 -139.93 1357.46 -140.13 1344.59 -140.32 1331.71 -140.49 1318.84 -140.65 1305.96 -140.77 1293.09 -140.85 1280.21 -140.89 1267.34 -140.89 1254.46 -140.84 1241.59 -140.76 1228.71 -140.64 1215.84 -140.48 1202.96 -140.31 1190.09 -140.12 1177.21 -139.92 1164.34 -139.73 1151.46 -139.54 1138.59 -139.39 1125.71 -139.26 1112.84 -139.16 1099.96 -139.11 1087.09 -139.1 1074.21 -139.13 1061.34 -139.2 1048.46 -139.31 1035.59 -139.46 1022.71 -139.63 1009.84 -139.82 996.97 -140.01 984.09 -140.21 971.22 -140.4 958.34 -140.56 945.47 -140.7 932.59 -140.81 919.72 -140.87 906.84 -140.89 893.97 -140.88 881.09 -140.81 868.22 -140.71 855.34 -140.58 842.47 -140.41 829.59 -140.23 816.72 -140.03 803.84 -139.84 790.97 -139.65 778.09 -139.47 765.22 -139.33 752.34 -139.21 739.47 -139.13 726.59 -139.1 713.72 -139.1 700.84 -139.15 687.97 -139.24 675.1 -139.37 662.22 -139.53 649.35 -139.71 636.47 -139.9 623.6 -140.1 610.72 -140.29 597.85 -140.47 584.97 -140.62 572.1 -140.75 559.22 -140.84 546.35 -140.89 533.47 -140.89 520.6 -140.85 507.72 -140.78 494.85 -140.66 481.97 -140.51 469.1 -140.34 456.22 -140.15 443.35 -139.95 430.47 -139.75 417.6 -139.57 404.72 -139.41 391.85 -139.27 378.97 -139.17 366.1 -139.11 353.22 -139.1 340.35 -139.12 327.48 -139.19 314.6 -139.29 301.73 -139.43 288.85 -139.6 275.98 -139.79 263.1 -139.98 250.23 -140.18 237.35 -140.37 224.48 -140.54 211.6 -140.68 198.73 -140.79 185.85 -140.86 172.98 -140.89 160.1 -140.88 147.23 -140.83 134.35 -140.73 121.48 -140.6 108.6 -140.44 95.73 -140.26 82.85 -140.06 69.98 -139.87 57.1 -139.68 44.23 -139.5 31.35 -139.35 18.48 -139.23 5.6 -139.14 -7.26 -139.1 -20.13 -139.1 -33.01 -139.14 -45.88 -139.23 -58.76 -139.35 -71.63 -139.5 -84.51 -139.68 -97.38 -139.87 -110.26 -140.07 -123.13 -140.26 -136.01 -140.44 -148.88 -140.6 -160.42 -133.71 -142.39 -112.5 -126.8 -98.26 -114.34 -83.95" fill="url(#uuunion-grad2)" filter="url(#uuunion-blur)"></path><path d="M1482.04 349.76Q1491.4 348.13 1500.76 345.8 1510.13 342.82 1519.49 339.26 1528.85 335.22 1538.21 330.8 1547.57 326.11 1556.94 321.26 1566.3 316.38 1575.66 311.59 1585.02 307.01 1594.39 302.76 1603.75 298.94 1613.11 295.66 1622.47 292.98 1631.83 290.98 1593.02 307.41 1547.88 323.84 1506.32 340.27 1477.46 356.69 1467.65 373.12 1479.04 389.55 1509.13 405.98 1551.3 422.41 1596.31 438.84 1634.26 455.27 1656.83 471.69 1659.07 488.12 1640.47 504.55 1605.12 520.98 1560.79 537.41 1517.21 553.84 1483.94 570.26 1468.29 586.69 1473.71 603.12 1498.98 619.55 1538.58 635.98 1583.8 652.41 1624.72 668.84 1652.35 685.26 1660.62 701.69 1647.72 718.12 1616.48 734.55 1573.76 750.98 1528.94 767.41 1491.87 783.83 1470.67 800.26 1470 816.69 1458.69 823.08 1447.37 832.17 1436.05 843.53 1424.73 856.63 1413.41 870.83 1402.09 885.47 1390.77 899.85 1379.46 913.28 1368.14 925.14 1356.82 934.85 1345.5 941.96 1334.18 946.12 1322.86 947.14 1311.54 944.98 1300.23 939.73 1288.91 931.64 1277.59 921.09 1266.27 908.6 1254.95 894.75 1243.63 880.2 1232.31 865.64 1221 851.75 1209.68 839.22 1198.36 828.61 1187.04 820.45 1175.72 815.12 1164.4 812.86 1153.08 813.8 1141.77 817.88 1130.45 824.91 1119.13 834.55 1107.81 846.35 1096.49 859.76 1085.17 874.12 1073.85 888.76 1062.54 902.98 1051.22 916.12 1039.9 927.53 1028.58 936.69 1017.26 943.16 1005.94 946.63 994.62 946.93 983.31 944.06 971.99 938.14 960.67 929.46 949.35 918.43 938.03 905.57 926.71 891.51 915.39 876.89 904.08 862.42 892.76 848.79 881.44 836.64 870.12 826.54 858.8 818.99 847.48 814.33 836.16 812.8 824.85 814.45 813.53 819.21 802.21 826.87 790.89 837.04 779.57 849.26 768.25 862.93 756.93 877.42 745.62 892.03 734.3 906.06 722.98 918.86 711.66 929.81 700.34 938.4 689.02 944.21 677.7 946.98 666.39 946.56 655.07 942.98 643.75 936.41 632.43 927.16 621.11 915.67 609.79 902.48 598.47 888.23 587.16 873.59 575.84 859.25 564.52 845.9 553.2 834.16 541.88 824.6 530.56 817.68 519.24 813.71 507.93 812.89 496.61 815.26 485.29 820.7 473.97 828.96 462.65 839.64 451.33 852.24 440.01 866.15 428.7 880.73 417.38 895.27 406.06 909.08 394.74 921.51 383.42 931.97 372.1 939.97 360.78 945.11 349.47 947.16 338.15 946.02 326.83 941.75 315.51 934.54 304.19 924.75 292.87 912.82 281.55 899.34 270.24 884.94 258.92 870.31 247.6 856.13 236.28 843.09 224.96 831.8 213.64 822.8 202.32 816.52 191.01 813.25 179.69 813.15 168.37 816.22 157.05 822.33 145.73 831.17 134.41 842.33 123.09 855.28 111.78 869.41 100.46 884.03 89.14 898.47 77.82 912.03 66.5 924.06 55.18 934.01 43.86 941.39 27.15 941.19 20.64 925.88 17.95 915.23 13.88 904.58 8.73 893.93 2.87 883.28 -5.98 867.31 -8.2 862 1.34 853.81 11.47 842.69 22.24 828.9 33.64 812.86 45.68 795.08 58.3 776.16 71.46 756.74 85.08 737.47 99.07 718.99 113.35 701.91 127.81 686.74 142.35 673.88 156.87 663.65 171.28 656.19 185.51 651.53 199.48 649.54 213.14 649.99 226.47 652.49 239.45 656.6 252.08 661.77 264.38 667.41 276.41 672.95 288.21 677.79 299.84 681.4 311.39 683.3 322.93 683.13 334.55 680.61 346.31 675.59 358.31 668.06 370.59 658.11 383.21 645.98 396.21 631.98 409.59 616.52 423.35 600.1 437.48 583.23 451.93 566.43 466.64 550.24 481.53 535.13 496.52 521.53 511.5 509.76 526.37 500.08 541.01 492.61 555.32 487.38 569.19 484.3 582.53 483.16 595.27 483.68 607.33 485.51 618.69 488.2 629.34 491.3 639.27 494.35 656.94 497.81 673.09 497.4 680.57 494.25 687.94 489.16 695.35 482.11 702.99 473.19 711.01 462.56 719.59 450.48 728.89 437.27 739.04 423.3 750.17 408.96 762.36 394.67 771.61 387.37 780.92 380.45 790.29 374.06 799.71 368.36 809.2 363.48 818.74 359.53 828.35 356.57 838.03 354.67 847.77 353.82 857.59 354.02 867.47 355.22 877.42 357.33 887.45 360.26 897.55 363.88 907.72 368.03 917.97 372.55 928.3 377.27 938.7 382 949.18 386.57 959.74 390.81 970.37 394.54 981.08 397.63 991.87 399.94 1002.74 401.37 1013.68 401.86 1024.7 401.34 1035.8 399.8 1046.97 397.26 1058.21 393.75 1069.53 389.36 1080.92 384.18 1092.38 378.33 1103.91 371.95 1115.5 365.2 1127.17 358.25 1138.89 351.26 1150.68 344.42 1162.53 337.88 1174.43 331.8 1186.39 326.34 1198.4 321.6 1210.46 317.69 1222.57 314.69 1234.73 312.65 1246.93 311.58 1259.16 311.47 1271.43 312.29 1283.73 313.96 1296.07 316.4 1308.42 319.49 1320.8 323.1 1333.2 327.08 1345.61 331.27 1358.04 335.51 1370.47 339.62 1382.91 343.46 1395.34 346.87 1407.77 349.71 1420.19 351.87 1432.6 353.23 1445 353.74 1457.37 353.34 1469.72 352.01 1482.04 349.76" fill="url(#uuunion-grad3)" filter="url(#uuunion-blur2)"></path></svg>